<svg xmlns="http://www.w3.org/2000/svg" xmlns:xlink="http://www.w3.org/1999/xlink" width="100" zoomAndPan="magnify" viewBox="0 0 75 74.999997" height="100" preserveAspectRatio="xMidYMid meet" version="1.0"><defs><g/><clipPath id="eba22d4827"><path d="M 0.640625 0.238281 L 1 0.238281 L 1 1.921875 L 0.640625 1.921875 Z M 0.640625 0.238281 " clip-rule="nonzero"/></clipPath><clipPath id="301971ad3d"><path d="M 1 0.238281 L 2 0.238281 L 2 1.921875 L 1 1.921875 Z M 1 0.238281 " clip-rule="nonzero"/></clipPath><clipPath id="8459416f40"><path d="M 1 0.238281 L 3 0.238281 L 3 1.921875 L 1 1.921875 Z M 1 0.238281 " clip-rule="nonzero"/></clipPath><clipPath id="e2a6518884"><path d="M 2 0.238281 L 3 0.238281 L 3 1.921875 L 2 1.921875 Z M 2 0.238281 " clip-rule="nonzero"/></clipPath><clipPath id="c9786cd13d"><rect x="0" width="4" y="0" height="2"/></clipPath></defs><path fill="#050505" d="M 19.027344 75.007812 C 16.191406 75.007812 13.527344 73.90625 11.523438 71.902344 L 10.027344 70.40625 C 5.886719 66.273438 5.886719 59.550781 10.027344 55.417969 L 19.957031 45.5 C 20.746094 44.710938 21.648438 44.054688 22.632812 43.554688 C 26.746094 41.453125 31.703125 42.238281 34.96875 45.5 L 36.464844 46.996094 C 36.8125 47.339844 37.136719 47.710938 37.425781 48.09375 C 37.660156 48.398438 37.628906 48.828125 37.359375 49.097656 L 34.304688 52.148438 C 34.136719 52.316406 33.902344 52.398438 33.667969 52.367188 C 33.433594 52.339844 33.222656 52.207031 33.101562 52.003906 C 32.898438 51.667969 32.65625 51.355469 32.378906 51.078125 L 30.878906 49.582031 C 29.96875 48.671875 28.757812 48.171875 27.464844 48.171875 C 26.171875 48.171875 24.957031 48.671875 24.046875 49.582031 L 14.117188 59.5 C 12.230469 61.382812 12.230469 64.441406 14.113281 66.324219 L 15.613281 67.820312 C 16.523438 68.730469 17.734375 69.230469 19.027344 69.230469 C 20.320312 69.230469 21.535156 68.726562 22.445312 67.820312 L 32.375 57.902344 C 32.859375 57.421875 33.222656 56.863281 33.464844 56.234375 C 33.53125 56.058594 33.664062 55.914062 33.832031 55.828125 C 34.675781 55.398438 35.445312 54.839844 36.121094 54.164062 L 38.105469 52.183594 C 38.308594 51.980469 38.605469 51.90625 38.878906 51.992188 C 39.148438 52.078125 39.351562 52.308594 39.402344 52.585938 C 40.027344 56.011719 38.929688 59.527344 36.464844 61.984375 L 26.535156 71.902344 C 24.53125 73.902344 21.863281 75.007812 19.027344 75.007812 Z M 27.46875 43.921875 C 26.0625 43.921875 24.648438 44.246094 23.332031 44.917969 C 22.488281 45.347656 21.71875 45.910156 21.042969 46.585938 L 11.113281 56.5 C 7.570312 60.035156 7.570312 65.789062 11.113281 69.324219 L 12.609375 70.816406 C 14.324219 72.53125 16.605469 73.472656 19.027344 73.472656 C 21.453125 73.472656 23.734375 72.53125 25.449219 70.816406 L 35.378906 60.902344 C 37.113281 59.167969 38.058594 56.828125 38.039062 54.417969 L 37.207031 55.246094 C 36.488281 55.96875 35.671875 56.578125 34.785156 57.058594 C 34.46875 57.777344 34.027344 58.425781 33.464844 58.988281 L 23.53125 68.902344 C 22.289062 70.144531 20.660156 70.761719 19.027344 70.761719 C 17.398438 70.761719 15.765625 70.144531 14.527344 68.902344 L 13.027344 67.410156 C 10.546875 64.929688 10.546875 60.894531 13.03125 58.414062 L 22.960938 48.5 C 24.160156 47.300781 25.761719 46.640625 27.464844 46.640625 C 29.167969 46.640625 30.765625 47.300781 31.96875 48.5 L 33.464844 49.992188 C 33.601562 50.132812 33.734375 50.277344 33.859375 50.425781 L 35.78125 48.503906 C 35.652344 48.359375 35.519531 48.214844 35.382812 48.078125 L 33.882812 46.585938 C 32.132812 44.835938 29.816406 43.921875 27.46875 43.921875 Z M 27.46875 43.921875 " fill-opacity="1" fill-rule="nonzero"/><path fill="#050505" d="M 19.027344 70.761719 C 17.398438 70.761719 15.765625 70.144531 14.527344 68.902344 L 13.027344 67.410156 C 10.546875 64.929688 10.546875 60.894531 13.03125 58.414062 L 19.808594 51.648438 C 19.964844 51.492188 20.179688 51.410156 20.402344 51.425781 C 20.625 51.441406 20.828125 51.550781 20.960938 51.726562 C 21.210938 52.054688 21.488281 52.371094 21.785156 52.667969 L 23.28125 54.164062 C 26.078125 56.953125 30.316406 57.625 33.832031 55.828125 C 34.113281 55.683594 34.457031 55.726562 34.695312 55.941406 C 34.929688 56.152344 35.011719 56.488281 34.898438 56.785156 C 34.578125 57.613281 34.097656 58.355469 33.460938 58.988281 L 23.53125 68.902344 C 22.289062 70.144531 20.660156 70.761719 19.027344 70.761719 Z M 20.296875 53.328125 L 14.117188 59.5 C 12.230469 61.382812 12.230469 64.441406 14.113281 66.324219 L 15.613281 67.820312 C 17.496094 69.699219 20.5625 69.699219 22.445312 67.820312 L 32.226562 58.054688 C 28.675781 58.925781 24.871094 57.917969 22.195312 55.246094 L 20.699219 53.753906 C 20.558594 53.613281 20.425781 53.472656 20.296875 53.328125 Z M 20.296875 53.328125 " fill-opacity="1" fill-rule="nonzero"/><path fill="#050505" d="M 29.703125 54.109375 C 28.070312 54.109375 26.441406 53.488281 25.199219 52.25 L 23.703125 50.753906 C 23.332031 50.382812 23.011719 49.972656 22.746094 49.535156 C 22.566406 49.230469 22.613281 48.847656 22.863281 48.597656 L 22.960938 48.5 C 24.160156 47.300781 25.761719 46.640625 27.464844 46.640625 C 29.167969 46.640625 30.765625 47.300781 31.964844 48.5 L 33.464844 49.992188 C 33.832031 50.359375 34.152344 50.769531 34.417969 51.210938 C 34.601562 51.515625 34.550781 51.902344 34.304688 52.148438 L 34.203125 52.25 C 32.964844 53.488281 31.332031 54.109375 29.703125 54.109375 Z M 24.414062 49.25 C 24.53125 49.398438 24.65625 49.535156 24.789062 49.667969 L 26.285156 51.164062 C 28.050781 52.925781 30.855469 53.039062 32.75 51.496094 C 32.632812 51.351562 32.511719 51.210938 32.378906 51.078125 L 30.878906 49.582031 C 29.96875 48.671875 28.757812 48.171875 27.464844 48.171875 C 26.339844 48.171875 25.273438 48.550781 24.414062 49.25 Z M 24.414062 49.25 " fill-opacity="1" fill-rule="nonzero"/><path fill="#050505" d="M 19.027344 70.761719 C 17.398438 70.761719 15.765625 70.144531 14.527344 68.902344 L 13.027344 67.410156 C 10.546875 64.929688 10.546875 60.894531 13.03125 58.414062 L 19.808594 51.648438 C 19.964844 51.492188 20.179688 51.410156 20.402344 51.425781 C 20.625 51.441406 20.828125 51.550781 20.960938 51.726562 C 21.210938 52.054688 21.488281 52.371094 21.785156 52.667969 L 23.28125 54.164062 C 26.078125 56.953125 30.316406 57.625 33.832031 55.828125 C 34.113281 55.683594 34.457031 55.726562 34.695312 55.941406 C 34.929688 56.152344 35.011719 56.488281 34.898438 56.785156 C 34.578125 57.613281 34.097656 58.355469 33.460938 58.988281 L 23.53125 68.902344 C 22.289062 70.144531 20.660156 70.761719 19.027344 70.761719 Z M 20.296875 53.328125 L 14.117188 59.5 C 12.230469 61.382812 12.230469 64.441406 14.113281 66.324219 L 15.613281 67.820312 C 17.496094 69.699219 20.5625 69.699219 22.445312 67.820312 L 32.226562 58.054688 C 28.675781 58.925781 24.871094 57.917969 22.195312 55.246094 L 20.699219 53.753906 C 20.558594 53.613281 20.425781 53.472656 20.296875 53.328125 Z M 20.296875 53.328125 " fill-opacity="1" fill-rule="nonzero"/><path fill="#050505" d="M 29.703125 54.109375 C 28.070312 54.109375 26.441406 53.488281 25.199219 52.25 L 23.703125 50.753906 C 23.332031 50.382812 23.011719 49.972656 22.746094 49.535156 C 22.566406 49.230469 22.613281 48.847656 22.863281 48.597656 L 22.960938 48.5 C 24.160156 47.300781 25.761719 46.640625 27.464844 46.640625 C 29.167969 46.640625 30.765625 47.300781 31.964844 48.5 L 33.464844 49.992188 C 33.832031 50.359375 34.152344 50.769531 34.417969 51.210938 C 34.601562 51.515625 34.550781 51.902344 34.304688 52.148438 L 34.203125 52.25 C 32.964844 53.488281 31.332031 54.109375 29.703125 54.109375 Z M 24.414062 49.25 C 24.53125 49.398438 24.65625 49.535156 24.789062 49.667969 L 26.285156 51.164062 C 28.050781 52.925781 30.855469 53.039062 32.75 51.496094 C 32.632812 51.351562 32.511719 51.210938 32.378906 51.078125 L 30.878906 49.582031 C 29.96875 48.671875 28.757812 48.171875 27.464844 48.171875 C 26.339844 48.171875 25.273438 48.550781 24.414062 49.25 Z M 24.414062 49.25 " fill-opacity="1" fill-rule="nonzero"/><path fill="#050505" d="M 29.695312 58.359375 C 26.949219 58.359375 24.242188 57.289062 22.195312 55.246094 L 20.699219 53.753906 C 20.351562 53.40625 20.03125 53.039062 19.738281 52.652344 C 19.507812 52.347656 19.535156 51.917969 19.808594 51.648438 L 22.863281 48.597656 C 23.03125 48.429688 23.265625 48.347656 23.5 48.378906 C 23.734375 48.40625 23.941406 48.542969 24.0625 48.746094 C 24.261719 49.078125 24.507812 49.390625 24.789062 49.667969 L 26.285156 51.164062 C 27.195312 52.074219 28.410156 52.574219 29.703125 52.574219 C 30.992188 52.574219 32.207031 52.074219 33.117188 51.164062 L 44.644531 39.65625 C 44.859375 39.441406 45.179688 39.371094 45.464844 39.480469 C 45.75 39.59375 45.941406 39.859375 45.953125 40.160156 L 46.066406 42.539062 L 48.152344 42.429688 C 48.464844 42.414062 48.761719 42.59375 48.890625 42.882812 C 49.023438 43.175781 48.957031 43.515625 48.734375 43.738281 L 37.207031 55.246094 C 36.417969 56.035156 35.515625 56.691406 34.53125 57.195312 C 32.992188 57.976562 31.339844 58.359375 29.695312 58.359375 Z M 21.382812 52.242188 C 21.511719 52.386719 21.648438 52.53125 21.785156 52.667969 L 23.28125 54.164062 C 26.078125 56.953125 30.316406 57.625 33.832031 55.828125 C 34.675781 55.398438 35.445312 54.839844 36.121094 54.164062 L 46.234375 44.066406 L 45.375 44.109375 C 45.171875 44.121094 44.96875 44.050781 44.820312 43.914062 C 44.667969 43.777344 44.578125 43.585938 44.566406 43.378906 L 44.5 41.964844 L 34.203125 52.25 C 33.003906 53.449219 31.402344 54.109375 29.703125 54.109375 C 28 54.109375 26.398438 53.449219 25.199219 52.25 L 23.703125 50.753906 C 23.5625 50.617188 23.429688 50.472656 23.308594 50.320312 Z M 21.382812 52.242188 " fill-opacity="1" fill-rule="nonzero"/><path fill="#050505" d="M 29.703125 54.109375 C 28.070312 54.109375 26.441406 53.488281 25.199219 52.25 L 23.703125 50.753906 C 23.332031 50.382812 23.011719 49.972656 22.746094 49.535156 C 22.566406 49.230469 22.613281 48.847656 22.863281 48.597656 L 22.960938 48.5 C 24.160156 47.300781 25.761719 46.640625 27.464844 46.640625 C 29.167969 46.640625 30.765625 47.300781 31.964844 48.5 L 33.464844 49.992188 C 33.832031 50.359375 34.152344 50.769531 34.417969 51.210938 C 34.601562 51.515625 34.550781 51.902344 34.304688 52.148438 L 34.203125 52.25 C 32.964844 53.488281 31.332031 54.109375 29.703125 54.109375 Z M 24.414062 49.25 C 24.53125 49.398438 24.65625 49.535156 24.789062 49.667969 L 26.285156 51.164062 C 28.050781 52.925781 30.855469 53.039062 32.75 51.496094 C 32.632812 51.351562 32.511719 51.210938 32.378906 51.078125 L 30.878906 49.582031 C 29.96875 48.671875 28.757812 48.171875 27.464844 48.171875 C 26.339844 48.171875 25.273438 48.550781 24.414062 49.25 Z M 24.414062 49.25 " fill-opacity="1" fill-rule="nonzero"/><path fill="#050505" d="M 36.816406 49.324219 C 36.796875 49.324219 36.78125 49.324219 36.761719 49.324219 C 36.539062 49.308594 36.335938 49.195312 36.203125 49.019531 C 35.953125 48.691406 35.675781 48.375 35.378906 48.078125 L 33.882812 46.585938 C 31.089844 43.792969 26.847656 43.125 23.332031 44.917969 C 22.488281 45.347656 21.71875 45.910156 21.042969 46.585938 L 19.058594 48.566406 C 18.761719 48.863281 18.273438 48.863281 17.972656 48.566406 C 17.675781 48.265625 17.675781 47.78125 17.972656 47.480469 L 19.957031 45.5 C 20.746094 44.710938 21.648438 44.054688 22.632812 43.554688 C 26.746094 41.453125 31.703125 42.238281 34.96875 45.5 L 36.46875 46.996094 C 36.605469 47.132812 36.738281 47.273438 36.871094 47.417969 L 44.644531 39.65625 C 44.945312 39.355469 45.429688 39.355469 45.730469 39.65625 C 46.03125 39.953125 46.03125 40.441406 45.730469 40.738281 L 37.359375 49.101562 C 37.214844 49.242188 37.019531 49.324219 36.816406 49.324219 Z M 36.816406 49.324219 " fill-opacity="1" fill-rule="nonzero"/><path fill="#050505" d="M 29.703125 54.109375 C 28.070312 54.109375 26.441406 53.488281 25.199219 52.25 L 23.703125 50.753906 C 23.332031 50.382812 23.011719 49.972656 22.746094 49.535156 C 22.566406 49.230469 22.613281 48.847656 22.863281 48.597656 L 22.960938 48.5 C 24.160156 47.300781 25.761719 46.640625 27.464844 46.640625 C 29.167969 46.640625 30.765625 47.300781 31.964844 48.5 L 33.464844 49.992188 C 33.832031 50.359375 34.152344 50.769531 34.417969 51.210938 C 34.601562 51.515625 34.550781 51.902344 34.304688 52.148438 L 34.203125 52.25 C 32.964844 53.488281 31.332031 54.109375 29.703125 54.109375 Z M 24.414062 49.25 C 24.53125 49.398438 24.65625 49.535156 24.789062 49.667969 L 26.285156 51.164062 C 28.050781 52.925781 30.855469 53.039062 32.75 51.496094 C 32.632812 51.351562 32.511719 51.210938 32.378906 51.078125 L 30.878906 49.582031 C 29.96875 48.671875 28.757812 48.171875 27.464844 48.171875 C 26.339844 48.171875 25.273438 48.550781 24.414062 49.25 Z M 24.414062 49.25 " fill-opacity="1" fill-rule="nonzero"/><path fill="#050505" d="M 36.816406 49.324219 C 36.796875 49.324219 36.78125 49.324219 36.761719 49.324219 C 36.539062 49.308594 36.335938 49.195312 36.203125 49.019531 C 35.953125 48.691406 35.675781 48.375 35.378906 48.078125 L 33.882812 46.585938 C 31.089844 43.792969 26.847656 43.125 23.332031 44.917969 C 22.957031 45.113281 22.492188 44.964844 22.300781 44.585938 C 22.105469 44.207031 22.257812 43.746094 22.632812 43.554688 C 26.746094 41.453125 31.703125 42.238281 34.96875 45.5 L 36.464844 46.996094 C 36.605469 47.132812 36.738281 47.273438 36.871094 47.417969 L 44.644531 39.65625 C 44.945312 39.355469 45.429688 39.355469 45.730469 39.65625 C 46.03125 39.953125 46.03125 40.441406 45.730469 40.738281 L 37.359375 49.101562 C 37.214844 49.242188 37.019531 49.324219 36.816406 49.324219 Z M 36.816406 49.324219 " fill-opacity="1" fill-rule="nonzero"/><path fill="#050505" d="M 47.96875 32.621094 C 45.21875 32.621094 42.511719 31.550781 40.46875 29.507812 L 38.96875 28.015625 C 38.625 27.671875 38.300781 27.300781 38.007812 26.914062 C 37.777344 26.609375 37.808594 26.179688 38.078125 25.910156 L 41.132812 22.859375 C 41.300781 22.691406 41.535156 22.613281 41.769531 22.640625 C 42.003906 22.667969 42.214844 22.804688 42.335938 23.007812 C 42.535156 23.34375 42.78125 23.652344 43.058594 23.933594 L 44.554688 25.425781 C 45.46875 26.335938 46.679688 26.835938 47.972656 26.835938 C 49.265625 26.835938 50.480469 26.335938 51.390625 25.425781 L 61.320312 15.511719 C 63.207031 13.628906 63.207031 10.566406 61.320312 8.683594 L 59.824219 7.191406 C 58.914062 6.28125 57.699219 5.78125 56.410156 5.78125 L 56.40625 5.78125 C 55.117188 5.78125 53.902344 6.28125 52.992188 7.191406 L 43.058594 17.105469 C 42.578125 17.585938 42.214844 18.148438 41.972656 18.773438 C 41.902344 18.949219 41.773438 19.09375 41.605469 19.179688 C 40.761719 19.609375 39.992188 20.171875 39.316406 20.847656 L 37.332031 22.828125 C 37.128906 23.027344 36.832031 23.101562 36.558594 23.015625 C 36.285156 22.929688 36.082031 22.703125 36.03125 22.421875 C 35.410156 18.996094 36.507812 15.484375 38.96875 13.023438 L 48.902344 3.109375 C 50.90625 1.105469 53.570312 0.00390625 56.40625 0.00390625 C 59.242188 0.00390625 61.910156 1.105469 63.914062 3.105469 L 65.410156 4.601562 C 69.550781 8.734375 69.550781 15.460938 65.410156 19.59375 L 55.480469 29.507812 C 54.691406 30.296875 53.789062 30.953125 52.800781 31.457031 C 51.265625 32.242188 49.609375 32.621094 47.96875 32.621094 Z M 39.65625 26.503906 C 39.785156 26.652344 39.917969 26.792969 40.054688 26.929688 L 41.554688 28.425781 C 43.300781 30.171875 45.617188 31.089844 47.96875 31.089844 C 49.375 31.089844 50.789062 30.761719 52.105469 30.089844 C 52.945312 29.660156 53.71875 29.101562 54.394531 28.425781 L 64.324219 18.507812 C 67.863281 14.972656 67.867188 9.222656 64.324219 5.6875 L 62.828125 4.191406 C 61.113281 2.480469 58.832031 1.535156 56.40625 1.535156 C 53.980469 1.535156 51.703125 2.480469 49.988281 4.191406 L 40.054688 14.109375 C 38.324219 15.839844 37.378906 18.183594 37.398438 20.59375 L 38.230469 19.761719 C 38.949219 19.042969 39.765625 18.433594 40.652344 17.949219 C 40.964844 17.230469 41.410156 16.585938 41.972656 16.023438 L 51.902344 6.105469 C 54.386719 3.625 58.429688 3.625 60.910156 6.105469 L 62.40625 7.601562 C 64.890625 10.082031 64.890625 14.113281 62.40625 16.59375 L 52.476562 26.511719 C 51.273438 27.710938 49.675781 28.371094 47.972656 28.371094 C 46.269531 28.371094 44.671875 27.710938 43.46875 26.511719 L 41.972656 25.015625 C 41.835938 24.878906 41.703125 24.734375 41.578125 24.585938 Z M 39.65625 26.503906 " fill-opacity="1" fill-rule="nonzero"/><path fill="#050505" d="M 55.085938 23.585938 C 55.070312 23.585938 55.050781 23.585938 55.035156 23.585938 C 54.8125 23.570312 54.609375 23.460938 54.476562 23.28125 C 54.226562 22.953125 53.949219 22.636719 53.652344 22.339844 L 52.15625 20.847656 C 49.359375 18.054688 45.121094 17.386719 41.605469 19.179688 C 41.320312 19.324219 40.980469 19.28125 40.742188 19.070312 C 40.503906 18.855469 40.425781 18.519531 40.539062 18.222656 C 40.859375 17.394531 41.339844 16.65625 41.972656 16.023438 L 51.90625 6.105469 C 54.386719 3.628906 58.429688 3.625 60.910156 6.105469 L 62.410156 7.601562 C 64.890625 10.082031 64.890625 14.113281 62.40625 16.59375 L 55.628906 23.363281 C 55.484375 23.507812 55.289062 23.585938 55.085938 23.585938 Z M 45.738281 16.648438 C 48.488281 16.648438 51.195312 17.71875 53.242188 19.761719 L 54.738281 21.257812 C 54.875 21.394531 55.011719 21.535156 55.140625 21.679688 L 61.320312 15.511719 C 63.207031 13.628906 63.207031 10.566406 61.320312 8.683594 L 59.824219 7.191406 C 57.941406 5.308594 54.875 5.308594 52.992188 7.191406 L 43.210938 16.957031 C 44.046875 16.75 44.894531 16.648438 45.738281 16.648438 Z M 45.738281 16.648438 " fill-opacity="1" fill-rule="nonzero"/><path fill="#050505" d="M 47.972656 28.371094 C 46.269531 28.371094 44.671875 27.710938 43.46875 26.511719 L 41.972656 25.015625 C 41.605469 24.648438 41.285156 24.238281 41.019531 23.796875 C 40.835938 23.496094 40.882812 23.109375 41.132812 22.859375 L 41.230469 22.761719 C 43.714844 20.28125 47.753906 20.28125 50.238281 22.761719 L 51.734375 24.253906 C 52.105469 24.625 52.425781 25.035156 52.691406 25.476562 C 52.871094 25.777344 52.824219 26.164062 52.574219 26.414062 L 52.476562 26.511719 C 51.277344 27.710938 49.675781 28.371094 47.972656 28.371094 Z M 42.6875 23.511719 C 42.800781 23.660156 42.925781 23.800781 43.058594 23.933594 L 44.554688 25.425781 C 45.46875 26.335938 46.679688 26.835938 47.972656 26.835938 C 49.097656 26.835938 50.164062 26.457031 51.023438 25.757812 C 50.90625 25.613281 50.78125 25.472656 50.648438 25.339844 L 49.152344 23.84375 C 47.386719 22.082031 44.582031 21.972656 42.6875 23.511719 Z M 42.6875 23.511719 " fill-opacity="1" fill-rule="nonzero"/><path fill="#050505" d="M 55.085938 23.585938 C 55.070312 23.585938 55.050781 23.585938 55.035156 23.585938 C 54.8125 23.570312 54.609375 23.460938 54.476562 23.28125 C 54.226562 22.953125 53.949219 22.636719 53.652344 22.339844 L 52.15625 20.847656 C 49.359375 18.054688 45.121094 17.386719 41.605469 19.179688 C 41.320312 19.324219 40.980469 19.28125 40.742188 19.070312 C 40.503906 18.855469 40.425781 18.519531 40.539062 18.222656 C 40.859375 17.394531 41.339844 16.65625 41.972656 16.023438 L 51.90625 6.105469 C 54.386719 3.628906 58.429688 3.625 60.910156 6.105469 L 62.410156 7.601562 C 64.890625 10.082031 64.890625 14.113281 62.40625 16.59375 L 55.628906 23.363281 C 55.484375 23.507812 55.289062 23.585938 55.085938 23.585938 Z M 45.738281 16.648438 C 48.488281 16.648438 51.195312 17.71875 53.242188 19.761719 L 54.738281 21.257812 C 54.875 21.394531 55.011719 21.535156 55.140625 21.679688 L 61.320312 15.511719 C 63.207031 13.628906 63.207031 10.566406 61.320312 8.683594 L 59.824219 7.191406 C 57.941406 5.308594 54.875 5.308594 52.992188 7.191406 L 43.210938 16.957031 C 44.046875 16.75 44.894531 16.648438 45.738281 16.648438 Z M 45.738281 16.648438 " fill-opacity="1" fill-rule="nonzero"/><path fill="#050505" d="M 47.972656 28.371094 C 46.269531 28.371094 44.671875 27.710938 43.46875 26.511719 L 41.972656 25.015625 C 41.605469 24.648438 41.285156 24.238281 41.019531 23.796875 C 40.835938 23.496094 40.882812 23.109375 41.132812 22.859375 L 41.230469 22.761719 C 43.714844 20.28125 47.753906 20.28125 50.238281 22.761719 L 51.734375 24.253906 C 52.105469 24.625 52.425781 25.035156 52.691406 25.476562 C 52.871094 25.777344 52.824219 26.164062 52.574219 26.414062 L 52.476562 26.511719 C 51.277344 27.710938 49.675781 28.371094 47.972656 28.371094 Z M 42.6875 23.511719 C 42.800781 23.660156 42.925781 23.800781 43.058594 23.933594 L 44.554688 25.425781 C 45.46875 26.335938 46.679688 26.835938 47.972656 26.835938 C 49.097656 26.835938 50.164062 26.457031 51.023438 25.757812 C 50.90625 25.613281 50.78125 25.472656 50.648438 25.339844 L 49.152344 23.84375 C 47.386719 22.082031 44.582031 21.972656 42.6875 23.511719 Z M 42.6875 23.511719 " fill-opacity="1" fill-rule="nonzero"/><path fill="#050505" d="M 30.25 35.578125 C 30.15625 35.578125 30.0625 35.5625 29.972656 35.527344 C 29.6875 35.417969 29.496094 35.152344 29.480469 34.847656 L 29.371094 32.46875 L 27.285156 32.578125 C 26.96875 32.59375 26.671875 32.414062 26.542969 32.125 C 26.414062 31.835938 26.476562 31.496094 26.703125 31.269531 L 38.230469 19.761719 C 39.019531 18.972656 39.921875 18.320312 40.90625 17.816406 C 45.015625 15.71875 49.972656 16.5 53.242188 19.761719 L 54.738281 21.257812 C 55.082031 21.601562 55.40625 21.972656 55.699219 22.355469 C 55.929688 22.664062 55.902344 23.089844 55.628906 23.363281 L 52.574219 26.414062 C 52.40625 26.578125 52.171875 26.660156 51.9375 26.632812 C 51.703125 26.601562 51.496094 26.46875 51.371094 26.265625 C 51.171875 25.929688 50.929688 25.621094 50.648438 25.339844 L 49.152344 23.84375 C 48.242188 22.933594 47.027344 22.433594 45.734375 22.433594 C 44.441406 22.433594 43.230469 22.933594 42.316406 23.84375 L 30.792969 35.355469 C 30.644531 35.5 30.449219 35.578125 30.25 35.578125 Z M 30.101562 30.898438 C 30.292969 30.898438 30.476562 30.96875 30.617188 31.097656 C 30.769531 31.234375 30.859375 31.425781 30.871094 31.628906 L 30.933594 33.042969 L 41.230469 22.761719 C 42.433594 21.5625 44.03125 20.902344 45.734375 20.902344 C 47.4375 20.902344 49.035156 21.5625 50.238281 22.761719 L 51.734375 24.253906 C 51.875 24.394531 52.003906 24.539062 52.128906 24.6875 L 54.054688 22.769531 C 53.925781 22.621094 53.789062 22.480469 53.652344 22.339844 L 52.15625 20.847656 C 49.359375 18.054688 45.121094 17.386719 41.605469 19.179688 C 40.761719 19.613281 39.992188 20.171875 39.316406 20.847656 L 29.203125 30.945312 L 30.0625 30.898438 C 30.074219 30.898438 30.089844 30.898438 30.101562 30.898438 Z M 30.101562 30.898438 " fill-opacity="1" fill-rule="nonzero"/><path fill="#050505" d="M 47.972656 28.371094 C 46.269531 28.371094 44.671875 27.710938 43.46875 26.511719 L 41.972656 25.015625 C 41.605469 24.648438 41.285156 24.238281 41.019531 23.796875 C 40.835938 23.496094 40.882812 23.109375 41.132812 22.859375 L 41.230469 22.761719 C 43.714844 20.28125 47.753906 20.28125 50.238281 22.761719 L 51.734375 24.253906 C 52.105469 24.625 52.425781 25.035156 52.691406 25.476562 C 52.871094 25.777344 52.824219 26.164062 52.574219 26.414062 L 52.476562 26.511719 C 51.277344 27.710938 49.675781 28.371094 47.972656 28.371094 Z M 42.6875 23.511719 C 42.800781 23.660156 42.925781 23.800781 43.058594 23.933594 L 44.554688 25.425781 C 45.46875 26.335938 46.679688 26.835938 47.972656 26.835938 C 49.097656 26.835938 50.164062 26.457031 51.023438 25.757812 C 50.90625 25.613281 50.78125 25.472656 50.648438 25.339844 L 49.152344 23.84375 C 47.386719 22.082031 44.582031 21.972656 42.6875 23.511719 Z M 42.6875 23.511719 " fill-opacity="1" fill-rule="nonzero"/><path fill="#050505" d="M 30.25 35.578125 C 30.054688 35.578125 29.855469 35.503906 29.707031 35.355469 C 29.40625 35.054688 29.40625 34.570312 29.707031 34.269531 L 38.078125 25.910156 C 38.234375 25.753906 38.453125 25.671875 38.675781 25.6875 C 38.894531 25.703125 39.101562 25.8125 39.234375 25.988281 C 39.484375 26.320312 39.761719 26.636719 40.054688 26.929688 L 41.554688 28.425781 C 44.347656 31.214844 48.589844 31.886719 52.105469 30.089844 C 52.945312 29.660156 53.71875 29.101562 54.394531 28.425781 L 56.375 26.445312 C 56.675781 26.144531 57.164062 26.144531 57.460938 26.445312 C 57.761719 26.746094 57.761719 27.230469 57.460938 27.527344 L 55.480469 29.507812 C 54.691406 30.296875 53.789062 30.953125 52.800781 31.457031 C 48.691406 33.554688 43.734375 32.773438 40.46875 29.507812 L 38.96875 28.015625 C 38.832031 27.878906 38.699219 27.734375 38.566406 27.589844 L 30.792969 35.355469 C 30.640625 35.503906 30.445312 35.578125 30.25 35.578125 Z M 30.25 35.578125 " fill-opacity="1" fill-rule="nonzero"/><path fill="#050505" d="M 47.972656 28.371094 C 46.269531 28.371094 44.671875 27.710938 43.46875 26.511719 L 41.972656 25.015625 C 41.605469 24.648438 41.285156 24.238281 41.019531 23.796875 C 40.835938 23.496094 40.882812 23.109375 41.132812 22.859375 L 41.230469 22.761719 C 43.714844 20.28125 47.753906 20.28125 50.238281 22.761719 L 51.734375 24.253906 C 52.105469 24.625 52.425781 25.035156 52.691406 25.476562 C 52.871094 25.777344 52.824219 26.164062 52.574219 26.414062 L 52.476562 26.511719 C 51.277344 27.710938 49.675781 28.371094 47.972656 28.371094 Z M 42.6875 23.511719 C 42.800781 23.660156 42.925781 23.800781 43.058594 23.933594 L 44.554688 25.425781 C 45.46875 26.335938 46.679688 26.835938 47.972656 26.835938 C 49.097656 26.835938 50.164062 26.457031 51.023438 25.757812 C 50.90625 25.613281 50.78125 25.472656 50.648438 25.339844 L 49.152344 23.84375 C 47.386719 22.082031 44.582031 21.972656 42.6875 23.511719 Z M 42.6875 23.511719 " fill-opacity="1" fill-rule="nonzero"/><path fill="#050505" d="M 30.25 35.578125 C 30.054688 35.578125 29.855469 35.503906 29.707031 35.355469 C 29.40625 35.054688 29.40625 34.570312 29.707031 34.269531 L 38.078125 25.910156 C 38.234375 25.753906 38.453125 25.671875 38.675781 25.6875 C 38.894531 25.703125 39.101562 25.8125 39.234375 25.988281 C 39.484375 26.320312 39.761719 26.636719 40.054688 26.929688 L 41.554688 28.425781 C 44.347656 31.214844 48.589844 31.886719 52.105469 30.089844 C 52.480469 29.898438 52.945312 30.046875 53.136719 30.421875 C 53.332031 30.800781 53.179688 31.261719 52.804688 31.457031 C 51.265625 32.242188 49.609375 32.621094 47.96875 32.621094 C 45.21875 32.621094 42.511719 31.550781 40.46875 29.507812 L 38.96875 28.015625 C 38.832031 27.878906 38.699219 27.734375 38.566406 27.589844 L 30.792969 35.355469 C 30.640625 35.503906 30.445312 35.578125 30.25 35.578125 Z M 30.25 35.578125 " fill-opacity="1" fill-rule="nonzero"/><path fill="#050505" d="M 21.441406 25.261719 C 21.246094 25.261719 21.046875 25.1875 20.898438 25.035156 L 16.464844 20.609375 C 16.164062 20.308594 16.164062 19.824219 16.464844 19.523438 C 16.761719 19.226562 17.25 19.226562 17.550781 19.523438 L 21.984375 23.953125 C 22.285156 24.25 22.285156 24.738281 21.984375 25.035156 C 21.835938 25.1875 21.636719 25.261719 21.441406 25.261719 Z M 21.441406 25.261719 " fill-opacity="1" fill-rule="nonzero"/><path fill="#050505" d="M 15.59375 34.402344 C 15.546875 34.402344 15.496094 34.398438 15.445312 34.390625 L 8.980469 33.113281 C 8.5625 33.03125 8.292969 32.628906 8.375 32.210938 C 8.457031 31.796875 8.859375 31.527344 9.277344 31.609375 L 15.742188 32.882812 C 16.160156 32.964844 16.429688 33.371094 16.347656 33.785156 C 16.277344 34.152344 15.953125 34.402344 15.59375 34.402344 Z M 15.59375 34.402344 " fill-opacity="1" fill-rule="nonzero"/><path fill="#050505" d="M 30.597656 19.421875 C 30.238281 19.421875 29.914062 19.171875 29.84375 18.804688 L 28.566406 12.347656 C 28.484375 11.933594 28.753906 11.53125 29.171875 11.449219 C 29.585938 11.367188 29.992188 11.636719 30.074219 12.050781 L 31.351562 18.507812 C 31.433594 18.921875 31.160156 19.328125 30.746094 19.410156 C 30.695312 19.417969 30.644531 19.421875 30.597656 19.421875 Z M 30.597656 19.421875 " fill-opacity="1" fill-rule="nonzero"/><path fill="#050505" d="M 59.777344 56.960938 C 59.578125 56.960938 59.382812 56.886719 59.234375 56.734375 L 54.796875 52.308594 C 54.5 52.007812 54.5 51.523438 54.796875 51.222656 C 55.097656 50.921875 55.585938 50.921875 55.882812 51.222656 L 60.320312 55.652344 C 60.617188 55.949219 60.617188 56.4375 60.320312 56.734375 C 60.167969 56.886719 59.972656 56.960938 59.777344 56.960938 Z M 59.777344 56.960938 " fill-opacity="1" fill-rule="nonzero"/><path fill="#050505" d="M 67.65625 44.664062 C 67.605469 44.664062 67.554688 44.660156 67.503906 44.652344 L 61.039062 43.375 C 60.625 43.292969 60.351562 42.890625 60.433594 42.476562 C 60.515625 42.058594 60.921875 41.789062 61.335938 41.871094 L 67.804688 43.148438 C 68.21875 43.230469 68.488281 43.632812 68.40625 44.046875 C 68.335938 44.414062 68.015625 44.664062 67.65625 44.664062 Z M 67.65625 44.664062 " fill-opacity="1" fill-rule="nonzero"/><path fill="#050505" d="M 47.460938 64.828125 C 47.101562 64.828125 46.78125 64.574219 46.710938 64.207031 L 45.433594 57.753906 C 45.351562 57.335938 45.621094 56.933594 46.035156 56.851562 C 46.453125 56.769531 46.855469 57.039062 46.9375 57.457031 L 48.214844 63.910156 C 48.296875 64.328125 48.027344 64.730469 47.613281 64.8125 C 47.5625 64.824219 47.511719 64.828125 47.460938 64.828125 Z M 47.460938 64.828125 " fill-opacity="1" fill-rule="nonzero"/><g transform="matrix(1, 0, 0, 1, 26, 42)"><g clip-path="url(#c9786cd13d)"><g clip-path="url(#eba22d4827)"><g fill="#050505" fill-opacity="1"><g transform="translate(0.655679, 1.478366)"><g><path d="M 0.234375 0.015625 C 0.191406 0.015625 0.15625 0.00390625 0.125 -0.015625 C 0.101562 -0.046875 0.09375 -0.0820312 0.09375 -0.125 L 0.09375 -0.8125 L 0.1875 -0.8125 L 0.1875 -0.140625 C 0.1875 -0.109375 0.191406 -0.0859375 0.203125 -0.078125 C 0.210938 -0.0664062 0.222656 -0.0625 0.234375 -0.0625 C 0.253906 -0.0625 0.269531 -0.0664062 0.28125 -0.078125 L 0.28125 -0.0625 L 0.296875 0 C 0.285156 0 0.273438 0 0.265625 0 C 0.253906 0.0078125 0.242188 0.015625 0.234375 0.015625 Z M 0.234375 0.015625 "/></g></g></g></g><g clip-path="url(#301971ad3d)"><g fill="#050505" fill-opacity="1"><g transform="translate(0.971381, 1.478366)"><g><path d="M 0.328125 0.015625 C 0.273438 0.015625 0.226562 0.00390625 0.1875 -0.015625 C 0.144531 -0.046875 0.113281 -0.0820312 0.09375 -0.125 C 0.0703125 -0.164062 0.0625 -0.222656 0.0625 -0.296875 C 0.0625 -0.359375 0.0703125 -0.410156 0.09375 -0.453125 C 0.113281 -0.492188 0.144531 -0.523438 0.1875 -0.546875 C 0.226562 -0.578125 0.273438 -0.59375 0.328125 -0.59375 C 0.390625 -0.59375 0.4375 -0.578125 0.46875 -0.546875 C 0.507812 -0.523438 0.539062 -0.492188 0.5625 -0.453125 C 0.59375 -0.410156 0.609375 -0.359375 0.609375 -0.296875 C 0.609375 -0.222656 0.59375 -0.164062 0.5625 -0.125 C 0.539062 -0.0820312 0.507812 -0.046875 0.46875 -0.015625 C 0.4375 0.00390625 0.390625 0.015625 0.328125 0.015625 Z M 0.328125 -0.0625 C 0.390625 -0.0625 0.4375 -0.078125 0.46875 -0.109375 C 0.5 -0.148438 0.515625 -0.210938 0.515625 -0.296875 C 0.515625 -0.367188 0.5 -0.421875 0.46875 -0.453125 C 0.4375 -0.492188 0.390625 -0.515625 0.328125 -0.515625 C 0.273438 -0.515625 0.234375 -0.492188 0.203125 -0.453125 C 0.171875 -0.421875 0.15625 -0.367188 0.15625 -0.296875 C 0.15625 -0.210938 0.171875 -0.148438 0.203125 -0.109375 C 0.234375 -0.078125 0.273438 -0.0625 0.328125 -0.0625 Z M 0.328125 -0.0625 "/></g></g></g></g><g clip-path="url(#8459416f40)"><g fill="#050505" fill-opacity="1"><g transform="translate(1.633304, 1.478366)"><g><path d="M 0.296875 0.25 C 0.203125 0.25 0.132812 0.234375 0.09375 0.203125 C 0.0507812 0.171875 0.03125 0.128906 0.03125 0.078125 C 0.03125 0.046875 0.0390625 0.0195312 0.0625 0 C 0.0820312 -0.0195312 0.113281 -0.0351562 0.15625 -0.046875 C 0.132812 -0.0546875 0.117188 -0.0664062 0.109375 -0.078125 C 0.0976562 -0.0976562 0.09375 -0.117188 0.09375 -0.140625 C 0.09375 -0.160156 0.0976562 -0.175781 0.109375 -0.1875 C 0.128906 -0.207031 0.15625 -0.21875 0.1875 -0.21875 L 0.1875 -0.234375 C 0.125 -0.265625 0.09375 -0.316406 0.09375 -0.390625 C 0.09375 -0.429688 0.0976562 -0.46875 0.109375 -0.5 C 0.128906 -0.53125 0.15625 -0.550781 0.1875 -0.5625 C 0.21875 -0.582031 0.253906 -0.59375 0.296875 -0.59375 C 0.347656 -0.59375 0.390625 -0.582031 0.421875 -0.5625 C 0.429688 -0.570312 0.4375 -0.582031 0.4375 -0.59375 C 0.445312 -0.613281 0.453125 -0.632812 0.453125 -0.65625 L 0.46875 -0.65625 L 0.546875 -0.640625 C 0.535156 -0.617188 0.523438 -0.597656 0.515625 -0.578125 C 0.503906 -0.554688 0.484375 -0.535156 0.453125 -0.515625 C 0.472656 -0.492188 0.488281 -0.472656 0.5 -0.453125 C 0.507812 -0.429688 0.515625 -0.410156 0.515625 -0.390625 C 0.515625 -0.347656 0.503906 -0.3125 0.484375 -0.28125 C 0.460938 -0.257812 0.4375 -0.238281 0.40625 -0.21875 C 0.375 -0.207031 0.335938 -0.203125 0.296875 -0.203125 C 0.296875 -0.203125 0.285156 -0.203125 0.265625 -0.203125 C 0.253906 -0.203125 0.242188 -0.203125 0.234375 -0.203125 C 0.222656 -0.203125 0.210938 -0.195312 0.203125 -0.1875 C 0.191406 -0.175781 0.1875 -0.164062 0.1875 -0.15625 C 0.1875 -0.132812 0.191406 -0.117188 0.203125 -0.109375 C 0.210938 -0.0976562 0.226562 -0.09375 0.25 -0.09375 L 0.390625 -0.09375 C 0.453125 -0.0820312 0.492188 -0.0664062 0.515625 -0.046875 C 0.546875 -0.0234375 0.5625 0.0078125 0.5625 0.0625 C 0.5625 0.09375 0.550781 0.125 0.53125 0.15625 C 0.519531 0.1875 0.492188 0.207031 0.453125 0.21875 C 0.410156 0.238281 0.359375 0.25 0.296875 0.25 Z M 0.296875 -0.265625 C 0.335938 -0.265625 0.367188 -0.273438 0.390625 -0.296875 C 0.410156 -0.316406 0.421875 -0.347656 0.421875 -0.390625 C 0.421875 -0.429688 0.410156 -0.460938 0.390625 -0.484375 C 0.367188 -0.503906 0.335938 -0.515625 0.296875 -0.515625 C 0.253906 -0.515625 0.222656 -0.503906 0.203125 -0.484375 C 0.179688 -0.460938 0.171875 -0.429688 0.171875 -0.390625 C 0.171875 -0.347656 0.179688 -0.316406 0.203125 -0.296875 C 0.222656 -0.273438 0.253906 -0.265625 0.296875 -0.265625 Z M 0.296875 0.171875 C 0.335938 0.171875 0.367188 0.164062 0.390625 0.15625 C 0.421875 0.144531 0.441406 0.128906 0.453125 0.109375 C 0.472656 0.0976562 0.484375 0.0820312 0.484375 0.0625 C 0.484375 0.0507812 0.476562 0.0390625 0.46875 0.03125 C 0.46875 0.0195312 0.457031 0.0078125 0.4375 0 C 0.425781 0 0.40625 0 0.375 0 L 0.25 -0.015625 L 0.234375 -0.015625 C 0.160156 -0.015625 0.125 0.015625 0.125 0.078125 C 0.125 0.140625 0.179688 0.171875 0.296875 0.171875 Z M 0.296875 0.171875 "/></g></g></g></g><g clip-path="url(#e2a6518884)"><g fill="#050505" fill-opacity="1"><g transform="translate(2.218928, 1.478366)"><g><path d="M 0.328125 0.015625 C 0.273438 0.015625 0.226562 0.00390625 0.1875 -0.015625 C 0.144531 -0.046875 0.113281 -0.0820312 0.09375 -0.125 C 0.0703125 -0.164062 0.0625 -0.222656 0.0625 -0.296875 C 0.0625 -0.359375 0.0703125 -0.410156 0.09375 -0.453125 C 0.113281 -0.492188 0.144531 -0.523438 0.1875 -0.546875 C 0.226562 -0.578125 0.273438 -0.59375 0.328125 -0.59375 C 0.390625 -0.59375 0.4375 -0.578125 0.46875 -0.546875 C 0.507812 -0.523438 0.539062 -0.492188 0.5625 -0.453125 C 0.59375 -0.410156 0.609375 -0.359375 0.609375 -0.296875 C 0.609375 -0.222656 0.59375 -0.164062 0.5625 -0.125 C 0.539062 -0.0820312 0.507812 -0.046875 0.46875 -0.015625 C 0.4375 0.00390625 0.390625 0.015625 0.328125 0.015625 Z M 0.328125 -0.0625 C 0.390625 -0.0625 0.4375 -0.078125 0.46875 -0.109375 C 0.5 -0.148438 0.515625 -0.210938 0.515625 -0.296875 C 0.515625 -0.367188 0.5 -0.421875 0.46875 -0.453125 C 0.4375 -0.492188 0.390625 -0.515625 0.328125 -0.515625 C 0.273438 -0.515625 0.234375 -0.492188 0.203125 -0.453125 C 0.171875 -0.421875 0.15625 -0.367188 0.15625 -0.296875 C 0.15625 -0.210938 0.171875 -0.148438 0.203125 -0.109375 C 0.234375 -0.078125 0.273438 -0.0625 0.328125 -0.0625 Z M 0.328125 -0.0625 "/></g></g></g></g></g></g></svg>