<svg xmlns="http://www.w3.org/2000/svg" xmlns:xlink="http://www.w3.org/1999/xlink" width="100" zoomAndPan="magnify" viewBox="0 0 75 74.999997" height="100" preserveAspectRatio="xMidYMid meet" version="1.0"><defs><g/><clipPath id="c7cbbf91cc"><path d="M 2.515625 2 L 60 2 L 60 73.1875 L 2.515625 73.1875 Z M 2.515625 2 " clip-rule="nonzero"/></clipPath><clipPath id="65e636d014"><path d="M 61 6 L 72.265625 6 L 72.265625 12 L 61 12 Z M 61 6 " clip-rule="nonzero"/></clipPath><clipPath id="c992f23efb"><path d="M 0.28125 0.160156 L 1 0.160156 L 1 1.839844 L 0.28125 1.839844 Z M 0.28125 0.160156 " clip-rule="nonzero"/></clipPath><clipPath id="fd3fbd0cb2"><path d="M 0.28125 0.160156 L 2 0.160156 L 2 1.839844 L 0.28125 1.839844 Z M 0.28125 0.160156 " clip-rule="nonzero"/></clipPath><clipPath id="e47e55cafe"><path d="M 1 0.160156 L 3 0.160156 L 3 1.839844 L 1 1.839844 Z M 1 0.160156 " clip-rule="nonzero"/></clipPath><clipPath id="c54c738b04"><path d="M 2 0.160156 L 3 0.160156 L 3 1.839844 L 2 1.839844 Z M 2 0.160156 " clip-rule="nonzero"/></clipPath><clipPath id="17888af088"><rect x="0" width="4" y="0" height="2"/></clipPath></defs><g clip-path="url(#c7cbbf91cc)"><path fill="#000000" d="M 57.863281 25.769531 L 21.238281 25.769531 L 38.640625 8.28125 C 38.859375 8.058594 38.984375 7.757812 38.984375 7.445312 C 38.984375 7.128906 38.859375 6.828125 38.640625 6.605469 L 35.304688 3.253906 C 33.964844 1.910156 31.632812 1.910156 30.296875 3.253906 L 27.601562 5.960938 L 29.269531 7.636719 L 31.964844 4.929688 C 32.410156 4.480469 33.1875 4.480469 33.632812 4.929688 L 36.136719 7.445312 L 7.773438 35.945312 L 5.269531 33.429688 C 5.046875 33.207031 4.921875 32.910156 4.921875 32.59375 C 4.921875 32.277344 5.046875 31.980469 5.269531 31.753906 L 26.910156 10.007812 L 25.242188 8.332031 L 23.621094 9.960938 L 21.953125 8.285156 C 20.574219 6.894531 18.328125 6.898438 16.949219 8.285156 L 8.605469 16.667969 C 7.226562 18.054688 7.226562 20.308594 8.605469 21.695312 L 10.273438 23.375 L 3.601562 30.082031 C 2.929688 30.753906 2.5625 31.644531 2.5625 32.597656 C 2.5625 33.546875 2.929688 34.4375 3.601562 35.109375 L 6.9375 38.464844 C 7.160156 38.683594 7.460938 38.808594 7.773438 38.808594 C 8.085938 38.808594 8.386719 38.683594 8.605469 38.460938 L 14.878906 32.15625 L 19.847656 70.097656 C 20.078125 71.859375 21.585938 73.1875 23.355469 73.1875 L 49.894531 73.1875 C 51.664062 73.1875 53.171875 71.859375 53.402344 70.097656 L 57.480469 38.964844 L 55.140625 38.652344 L 51.0625 69.785156 C 50.984375 70.375 50.484375 70.816406 49.894531 70.816406 L 23.355469 70.816406 C 22.765625 70.816406 22.265625 70.375 22.1875 69.785156 L 16.984375 30.042969 L 18.878906 28.140625 L 56.515625 28.140625 L 55.761719 33.914062 L 58.101562 34.222656 L 59.03125 27.109375 C 59.078125 26.769531 58.972656 26.429688 58.75 26.171875 C 58.523438 25.914062 58.203125 25.769531 57.863281 25.769531 Z M 10.277344 20.019531 C 9.816406 19.558594 9.816406 18.804688 10.277344 18.34375 L 18.617188 9.960938 C 19.078125 9.5 19.824219 9.496094 20.289062 9.960938 L 21.957031 11.636719 L 11.945312 21.695312 Z M 10.277344 20.019531 " fill-opacity="1" fill-rule="nonzero"/></g><path fill="#000000" d="M 33.085938 36.4375 L 33.085938 62.519531 C 33.085938 64.480469 34.675781 66.074219 36.625 66.074219 C 38.578125 66.074219 40.164062 64.480469 40.164062 62.519531 L 40.164062 36.4375 C 40.164062 34.476562 38.578125 32.882812 36.625 32.882812 C 34.675781 32.882812 33.085938 34.476562 33.085938 36.4375 Z M 37.804688 36.4375 L 37.804688 62.519531 C 37.804688 63.171875 37.273438 63.707031 36.625 63.707031 C 35.976562 63.707031 35.445312 63.171875 35.445312 62.519531 L 35.445312 36.4375 C 35.445312 35.785156 35.976562 35.253906 36.625 35.253906 C 37.273438 35.253906 37.804688 35.785156 37.804688 36.4375 Z M 37.804688 36.4375 " fill-opacity="1" fill-rule="nonzero"/><path fill="#000000" d="M 23.648438 36.4375 L 23.648438 62.519531 C 23.648438 64.480469 25.234375 66.074219 27.1875 66.074219 C 29.136719 66.074219 30.726562 64.480469 30.726562 62.519531 L 30.726562 36.4375 C 30.726562 34.476562 29.136719 32.882812 27.1875 32.882812 C 25.234375 32.882812 23.648438 34.476562 23.648438 36.4375 Z M 28.367188 36.4375 L 28.367188 62.519531 C 28.367188 63.171875 27.835938 63.707031 27.1875 63.707031 C 26.535156 63.707031 26.007812 63.171875 26.007812 62.519531 L 26.007812 36.4375 C 26.007812 35.785156 26.535156 35.253906 27.1875 35.253906 C 27.835938 35.253906 28.367188 35.785156 28.367188 36.4375 Z M 28.367188 36.4375 " fill-opacity="1" fill-rule="nonzero"/><path fill="#000000" d="M 42.523438 36.4375 L 42.523438 62.519531 C 42.523438 64.480469 44.113281 66.074219 46.0625 66.074219 C 48.015625 66.074219 49.601562 64.480469 49.601562 62.519531 L 49.601562 36.4375 C 49.601562 34.476562 48.015625 32.882812 46.0625 32.882812 C 44.113281 32.882812 42.523438 34.476562 42.523438 36.4375 Z M 47.242188 36.4375 L 47.242188 62.519531 C 47.242188 63.171875 46.714844 63.707031 46.0625 63.707031 C 45.414062 63.707031 44.882812 63.171875 44.882812 62.519531 L 44.882812 36.4375 C 44.882812 35.785156 45.414062 35.253906 46.0625 35.253906 C 46.714844 35.253906 47.242188 35.785156 47.242188 36.4375 Z M 47.242188 36.4375 " fill-opacity="1" fill-rule="nonzero"/><path fill="#000000" d="M 42.8125 15.132812 L 38.09375 13.949219 C 37.628906 13.832031 37.144531 14.007812 36.863281 14.386719 L 33.324219 19.128906 C 33.113281 19.410156 33.039062 19.769531 33.117188 20.113281 C 33.199219 20.457031 33.425781 20.742188 33.738281 20.902344 L 38.457031 23.273438 C 38.621094 23.355469 38.800781 23.398438 38.984375 23.398438 L 44.882812 23.398438 C 45.277344 23.398438 45.640625 23.203125 45.859375 22.875 C 46.082031 22.550781 46.125 22.136719 45.980469 21.773438 L 43.621094 15.84375 C 43.480469 15.492188 43.179688 15.226562 42.8125 15.132812 Z M 39.261719 21.027344 L 36.058594 19.417969 L 38.28125 16.441406 L 41.652344 17.289062 L 43.140625 21.027344 Z M 39.261719 21.027344 " fill-opacity="1" fill-rule="nonzero"/><path fill="#000000" d="M 57.691406 13.289062 L 56.558594 11.011719 C 56.320312 10.53125 55.789062 10.273438 55.269531 10.378906 L 49.371094 11.566406 C 48.820312 11.675781 48.421875 12.160156 48.421875 12.726562 L 48.421875 15.097656 C 48.421875 15.195312 48.433594 15.292969 48.457031 15.386719 L 49.636719 20.128906 C 49.769531 20.660156 50.246094 21.027344 50.78125 21.027344 C 50.832031 21.027344 50.878906 21.023438 50.929688 21.015625 L 60.367188 19.832031 C 60.785156 19.777344 61.144531 19.507812 61.308594 19.117188 C 61.472656 18.726562 61.417969 18.28125 61.164062 17.941406 Z M 51.671875 18.535156 L 50.78125 14.953125 L 50.78125 13.699219 L 54.851562 12.882812 L 55.625 14.445312 C 55.65625 14.507812 55.695312 14.570312 55.738281 14.625 L 58.058594 17.734375 Z M 51.671875 18.535156 " fill-opacity="1" fill-rule="nonzero"/><path fill="#000000" d="M 50.78125 2.058594 L 53.144531 2.058594 L 53.144531 4.429688 L 50.78125 4.429688 Z M 50.78125 2.058594 " fill-opacity="1" fill-rule="nonzero"/><g clip-path="url(#65e636d014)"><path fill="#000000" d="M 61.171875 9.417969 L 62.609375 11.296875 C 65.21875 9.285156 68.5625 8.5 71.789062 9.148438 L 72.253906 6.824219 C 68.355469 6.039062 64.316406 6.984375 61.171875 9.417969 Z M 61.171875 9.417969 " fill-opacity="1" fill-rule="nonzero"/></g><path fill="#000000" d="M 66.121094 13.914062 L 68.480469 13.914062 L 68.480469 16.285156 L 66.121094 16.285156 Z M 66.121094 13.914062 " fill-opacity="1" fill-rule="nonzero"/><path fill="#000000" d="M 55.503906 7.984375 L 57.863281 7.984375 C 57.863281 6.023438 59.449219 4.429688 61.402344 4.429688 L 61.402344 2.058594 C 58.148438 2.058594 55.503906 4.71875 55.503906 7.984375 Z M 55.503906 7.984375 " fill-opacity="1" fill-rule="nonzero"/><g transform="matrix(1, 0, 0, 1, 41, 26)"><g clip-path="url(#17888af088)"><g clip-path="url(#c992f23efb)"><g fill="#050505" fill-opacity="1"><g transform="translate(0.494045, 1.428369)"><g><path d="M 0.234375 0.015625 C 0.191406 0.015625 0.15625 0.00390625 0.125 -0.015625 C 0.101562 -0.046875 0.09375 -0.0820312 0.09375 -0.125 L 0.09375 -0.8125 L 0.1875 -0.8125 L 0.1875 -0.140625 C 0.1875 -0.109375 0.191406 -0.0859375 0.203125 -0.078125 C 0.210938 -0.0664062 0.222656 -0.0625 0.234375 -0.0625 C 0.253906 -0.0625 0.269531 -0.0664062 0.28125 -0.078125 L 0.28125 -0.0625 L 0.296875 0 C 0.285156 0 0.273438 0 0.265625 0 C 0.253906 0.0078125 0.242188 0.015625 0.234375 0.015625 Z M 0.234375 0.015625 "/></g></g></g></g><g clip-path="url(#fd3fbd0cb2)"><g fill="#050505" fill-opacity="1"><g transform="translate(0.809747, 1.428369)"><g><path d="M 0.328125 0.015625 C 0.273438 0.015625 0.226562 0.00390625 0.1875 -0.015625 C 0.144531 -0.046875 0.113281 -0.0820312 0.09375 -0.125 C 0.0703125 -0.164062 0.0625 -0.222656 0.0625 -0.296875 C 0.0625 -0.359375 0.0703125 -0.410156 0.09375 -0.453125 C 0.113281 -0.492188 0.144531 -0.523438 0.1875 -0.546875 C 0.226562 -0.578125 0.273438 -0.59375 0.328125 -0.59375 C 0.390625 -0.59375 0.4375 -0.578125 0.46875 -0.546875 C 0.507812 -0.523438 0.539062 -0.492188 0.5625 -0.453125 C 0.59375 -0.410156 0.609375 -0.359375 0.609375 -0.296875 C 0.609375 -0.222656 0.59375 -0.164062 0.5625 -0.125 C 0.539062 -0.0820312 0.507812 -0.046875 0.46875 -0.015625 C 0.4375 0.00390625 0.390625 0.015625 0.328125 0.015625 Z M 0.328125 -0.0625 C 0.390625 -0.0625 0.4375 -0.078125 0.46875 -0.109375 C 0.5 -0.148438 0.515625 -0.210938 0.515625 -0.296875 C 0.515625 -0.367188 0.5 -0.421875 0.46875 -0.453125 C 0.4375 -0.492188 0.390625 -0.515625 0.328125 -0.515625 C 0.273438 -0.515625 0.234375 -0.492188 0.203125 -0.453125 C 0.171875 -0.421875 0.15625 -0.367188 0.15625 -0.296875 C 0.15625 -0.210938 0.171875 -0.148438 0.203125 -0.109375 C 0.234375 -0.078125 0.273438 -0.0625 0.328125 -0.0625 Z M 0.328125 -0.0625 "/></g></g></g></g><g clip-path="url(#e47e55cafe)"><g fill="#050505" fill-opacity="1"><g transform="translate(1.47167, 1.428369)"><g><path d="M 0.296875 0.25 C 0.203125 0.25 0.132812 0.234375 0.09375 0.203125 C 0.0507812 0.171875 0.03125 0.128906 0.03125 0.078125 C 0.03125 0.046875 0.0390625 0.0195312 0.0625 0 C 0.0820312 -0.0195312 0.113281 -0.0351562 0.15625 -0.046875 C 0.132812 -0.0546875 0.117188 -0.0664062 0.109375 -0.078125 C 0.0976562 -0.0976562 0.09375 -0.117188 0.09375 -0.140625 C 0.09375 -0.160156 0.0976562 -0.175781 0.109375 -0.1875 C 0.128906 -0.207031 0.15625 -0.21875 0.1875 -0.21875 L 0.1875 -0.234375 C 0.125 -0.265625 0.09375 -0.316406 0.09375 -0.390625 C 0.09375 -0.429688 0.0976562 -0.46875 0.109375 -0.5 C 0.128906 -0.53125 0.15625 -0.550781 0.1875 -0.5625 C 0.21875 -0.582031 0.253906 -0.59375 0.296875 -0.59375 C 0.347656 -0.59375 0.390625 -0.582031 0.421875 -0.5625 C 0.429688 -0.570312 0.4375 -0.582031 0.4375 -0.59375 C 0.445312 -0.613281 0.453125 -0.632812 0.453125 -0.65625 L 0.46875 -0.65625 L 0.546875 -0.640625 C 0.535156 -0.617188 0.523438 -0.597656 0.515625 -0.578125 C 0.503906 -0.554688 0.484375 -0.535156 0.453125 -0.515625 C 0.472656 -0.492188 0.488281 -0.472656 0.5 -0.453125 C 0.507812 -0.429688 0.515625 -0.410156 0.515625 -0.390625 C 0.515625 -0.347656 0.503906 -0.3125 0.484375 -0.28125 C 0.460938 -0.257812 0.4375 -0.238281 0.40625 -0.21875 C 0.375 -0.207031 0.335938 -0.203125 0.296875 -0.203125 C 0.296875 -0.203125 0.285156 -0.203125 0.265625 -0.203125 C 0.253906 -0.203125 0.242188 -0.203125 0.234375 -0.203125 C 0.222656 -0.203125 0.210938 -0.195312 0.203125 -0.1875 C 0.191406 -0.175781 0.1875 -0.164062 0.1875 -0.15625 C 0.1875 -0.132812 0.191406 -0.117188 0.203125 -0.109375 C 0.210938 -0.0976562 0.226562 -0.09375 0.25 -0.09375 L 0.390625 -0.09375 C 0.453125 -0.0820312 0.492188 -0.0664062 0.515625 -0.046875 C 0.546875 -0.0234375 0.5625 0.0078125 0.5625 0.0625 C 0.5625 0.09375 0.550781 0.125 0.53125 0.15625 C 0.519531 0.1875 0.492188 0.207031 0.453125 0.21875 C 0.410156 0.238281 0.359375 0.25 0.296875 0.25 Z M 0.296875 -0.265625 C 0.335938 -0.265625 0.367188 -0.273438 0.390625 -0.296875 C 0.410156 -0.316406 0.421875 -0.347656 0.421875 -0.390625 C 0.421875 -0.429688 0.410156 -0.460938 0.390625 -0.484375 C 0.367188 -0.503906 0.335938 -0.515625 0.296875 -0.515625 C 0.253906 -0.515625 0.222656 -0.503906 0.203125 -0.484375 C 0.179688 -0.460938 0.171875 -0.429688 0.171875 -0.390625 C 0.171875 -0.347656 0.179688 -0.316406 0.203125 -0.296875 C 0.222656 -0.273438 0.253906 -0.265625 0.296875 -0.265625 Z M 0.296875 0.171875 C 0.335938 0.171875 0.367188 0.164062 0.390625 0.15625 C 0.421875 0.144531 0.441406 0.128906 0.453125 0.109375 C 0.472656 0.0976562 0.484375 0.0820312 0.484375 0.0625 C 0.484375 0.0507812 0.476562 0.0390625 0.46875 0.03125 C 0.46875 0.0195312 0.457031 0.0078125 0.4375 0 C 0.425781 0 0.40625 0 0.375 0 L 0.25 -0.015625 L 0.234375 -0.015625 C 0.160156 -0.015625 0.125 0.015625 0.125 0.078125 C 0.125 0.140625 0.179688 0.171875 0.296875 0.171875 Z M 0.296875 0.171875 "/></g></g></g></g><g clip-path="url(#c54c738b04)"><g fill="#050505" fill-opacity="1"><g transform="translate(2.057294, 1.428369)"><g><path d="M 0.328125 0.015625 C 0.273438 0.015625 0.226562 0.00390625 0.1875 -0.015625 C 0.144531 -0.046875 0.113281 -0.0820312 0.09375 -0.125 C 0.0703125 -0.164062 0.0625 -0.222656 0.0625 -0.296875 C 0.0625 -0.359375 0.0703125 -0.410156 0.09375 -0.453125 C 0.113281 -0.492188 0.144531 -0.523438 0.1875 -0.546875 C 0.226562 -0.578125 0.273438 -0.59375 0.328125 -0.59375 C 0.390625 -0.59375 0.4375 -0.578125 0.46875 -0.546875 C 0.507812 -0.523438 0.539062 -0.492188 0.5625 -0.453125 C 0.59375 -0.410156 0.609375 -0.359375 0.609375 -0.296875 C 0.609375 -0.222656 0.59375 -0.164062 0.5625 -0.125 C 0.539062 -0.0820312 0.507812 -0.046875 0.46875 -0.015625 C 0.4375 0.00390625 0.390625 0.015625 0.328125 0.015625 Z M 0.328125 -0.0625 C 0.390625 -0.0625 0.4375 -0.078125 0.46875 -0.109375 C 0.5 -0.148438 0.515625 -0.210938 0.515625 -0.296875 C 0.515625 -0.367188 0.5 -0.421875 0.46875 -0.453125 C 0.4375 -0.492188 0.390625 -0.515625 0.328125 -0.515625 C 0.273438 -0.515625 0.234375 -0.492188 0.203125 -0.453125 C 0.171875 -0.421875 0.15625 -0.367188 0.15625 -0.296875 C 0.15625 -0.210938 0.171875 -0.148438 0.203125 -0.109375 C 0.234375 -0.078125 0.273438 -0.0625 0.328125 -0.0625 Z M 0.328125 -0.0625 "/></g></g></g></g></g></g></svg>